<svg xmlns="http://www.w3.org/2000/svg" xmlns:xlink="http://www.w3.org/1999/xlink" width="55.527" height="21.392" viewBox="0 0 55.527 21.392"><defs><style>.a{fill:url(#a);}.b{fill:#820000;}.c{fill:red;}.d{fill:#1a1a1a;}</style><radialGradient id="a" cx="-6.47" cy="27.411" r="16.084" gradientTransform="matrix(-1, 0, 0, 1, -34.502, 0)" gradientUnits="userSpaceOnUse"><stop offset="0.002" stop-color="#f8708e"/><stop offset="0.02" stop-color="#f86d8a"/><stop offset="0.357" stop-color="#fb3e4f"/><stop offset="0.644" stop-color="#fd1c24"/><stop offset="0.868" stop-color="#fe0709"/><stop offset="1" stop-color="red"/></radialGradient></defs><g transform="translate(-583 -797.094)"><g transform="translate(419 1432.774)"><path class="a" d="M10.781,22.825a10.7,10.7,0,1,0,10.7-10.7A10.7,10.7,0,0,0,10.781,22.825Z" transform="translate(153.22 -647.809)"/><g transform="translate(164 -635.681)"><path class="b" d="M31.59,26.3a9.2,9.2,0,1,0-6.639,6.638A10.686,10.686,0,1,1,31.59,26.3Z" transform="translate(-10.777 -12.127)"/></g><path class="c" d="M21.3,23.2a5.123,5.123,0,1,0,2.517-2.24A6.222,6.222,0,1,1,21.3,23.2Z" transform="translate(145.161 -654.735)"/><path class="c" d="M14.5,20.577a7.858,7.858,0,1,0,6.207-5.088A9.148,9.148,0,1,1,14.5,20.577Z" transform="translate(150.784 -650.442)"/><path class="d" d="M179.175,36.8c-.351.037-1.255.009-1.8.009-1.292,0-1.966-.489-1.966-1.716V31.537c0-1.227.674-1.716,1.966-1.716.545,0,1.412-.043,1.8-.006a.13.13,0,0,1,.092.129v.522a.1.1,0,0,1-.1.111h-1.782c-.978,0-1.135.258-1.135.959v1.371h2.833a.185.185,0,0,1,.185.184v.351a.185.185,0,0,1-.185.185h-2.833v1.463c0,.7.157.959,1.135.959h1.782a.1.1,0,0,1,.1.111v.507A.131.131,0,0,1,179.175,36.8Z" transform="translate(14.142 -662.738)"/><path class="d" d="M207.706,36.828c-.7,0-1.413.036-1.68-.009a.211.211,0,0,1-.194-.231V30.077a.217.217,0,0,1,.194-.231c.267-.046.979,0,1.68,0a2.535,2.535,0,0,1,2.8,2.87v1.246A2.543,2.543,0,0,1,207.706,36.828Zm1.956-4.116c0-1.671-.849-2.15-1.956-2.15-.434,0-.72.009-1.025.027v5.5c.3.018.591.018,1.025.018,1.108,0,1.956-.489,1.956-2.15Z" transform="translate(-11.559 -662.758)"/><path class="d" d="M246.035,36.866h-.591c-.111,0-.143-.019-.24-.12L242.236,33.8h0v2.883a.176.176,0,0,1-.166.185h-.5c-.092,0-.166-.083-.166-.273V29.988c0-.042.055-.1.221-.115.4-.046,1.089-.01,1.624-.01,1.458,0,2.584.445,2.584,1.94v.065a1.768,1.768,0,0,1-1.449,1.82,5.665,5.665,0,0,1-1.156.117l2.9,2.859a.15.15,0,0,1,.027.083A.116.116,0,0,1,246.035,36.866ZM245,31.8c0-.923-.6-1.183-1.754-1.183-.286,0-.794,0-1.015.028v2.44c.406.009.8.019,1.015.019,1.135,0,1.754-.242,1.754-1.239Z" transform="translate(-41.611 -662.779)"/><path class="d" d="M180.515,95.325h-.092a.166.166,0,0,1-.157-.176V88.873a.058.058,0,0,0-.065-.064c-.046,0-.065.018-.092.083l-1.6,3.369a.467.467,0,0,1-.471.332c-.2,0-.341-.065-.471-.332l-1.6-3.369c-.028-.065-.046-.083-.093-.083a.058.058,0,0,0-.065.064V95.15a.166.166,0,0,1-.157.176h-.093a.166.166,0,0,1-.157-.176V88.873a.418.418,0,0,1,.47-.452.45.45,0,0,1,.425.286l1.615,3.387c.037.083.065.12.12.12s.083-.037.12-.12l1.615-3.387a.449.449,0,0,1,.424-.286.418.418,0,0,1,.471.452V95.15A.166.166,0,0,1,180.515,95.325Z" transform="translate(14.141 -712.261)"/><path class="d" d="M220.061,95.576H217.68c-.7,0-1.117-.259-1.117-1.034v-4.79c0-.776.415-1.034,1.117-1.034h2.381a.161.161,0,0,1,.175.157v.074c0,.092-.074.148-.175.148H217.68c-.443,0-.711.083-.711.656v2.03h3.092c.1,0,.175.056.175.148v.092a.16.16,0,0,1-.175.157h-3.092v2.363c0,.573.267.655.711.655h2.381c.1,0,.175.056.175.148v.074A.161.161,0,0,1,220.061,95.576Z" transform="translate(-20.625 -712.511)"/><path class="d" d="M247.521,95.366a13.171,13.171,0,0,1-1.514-.029.2.2,0,0,1-.157-.176V88.612a.2.2,0,0,1,.157-.176,13.138,13.138,0,0,1,1.514-.03c1.569,0,2.7.748,2.7,2.907v1.145C250.216,94.581,249.09,95.366,247.521,95.366Zm2.289-4.052c0-1.966-1-2.547-2.289-2.547-.535,0-.858-.017-1.264.011v6.236c.406.028.729-.008,1.264-.008,1.293,0,2.289-.6,2.289-2.547Z" transform="translate(-45.366 -712.246)"/><path class="d" d="M283.627,95.576h-2.381c-.7,0-1.117-.259-1.117-1.034v-4.79c0-.776.415-1.034,1.117-1.034h2.381a.161.161,0,0,1,.175.157v.074c0,.092-.074.148-.175.148h-2.381c-.443,0-.711.083-.711.656v2.03h3.092c.1,0,.175.056.175.148v.092a.16.16,0,0,1-.175.157h-3.092v2.363c0,.573.268.655.711.655h2.381c.1,0,.175.056.175.148v.074A.161.161,0,0,1,283.627,95.576Z" transform="translate(-74.325 -712.511)"/><path class="d" d="M310,95.38a12.722,12.722,0,0,1-1.431-.1c-.083-.009-.166-.056-.166-.148v-.12c0-.092.083-.119.176-.119h.037c.48.036.877.1,1.384.1,1.394,0,1.717-.618,1.717-1.375,0-.683-.4-.923-1.421-1.56l-.581-.36c-.84-.517-1.449-.96-1.449-1.781,0-1.209,1.08-1.5,2.16-1.5.489,0,.979.056,1.375.092.092.009.157.055.157.139v.12c0,.092-.074.129-.176.129-.2,0-.9-.092-1.366-.092-1.219,0-1.735.351-1.735,1.117,0,.572.425.914,1.246,1.412l.591.36c1.025.618,1.625,1.07,1.625,1.92S311.781,95.38,310,95.38Z" transform="translate(-98.093 -712.261)"/><path class="d" d="M340.463,95.38c-1.375,0-2.363-.849-2.363-2.907V91.328c0-2.058.988-2.907,2.363-2.907s2.363.849,2.363,2.907v1.145C342.826,94.531,341.838,95.38,340.463,95.38Zm1.956-4.052c0-1.883-.84-2.519-1.956-2.519s-1.957.637-1.957,2.519v1.145c0,1.883.84,2.52,1.957,2.52s1.956-.637,1.956-2.52Z" transform="translate(-123.299 -712.261)"/><g transform="translate(205.239 -632.935)"><path class="d" d="M276.89,29.945v.793h-.148v-.793h-.252V29.82h.653v.125Z" transform="translate(-276.49 -29.82)"/><path class="d" d="M282.1,30.738l-.072-.488c-.015-.1-.022-.165-.029-.224h0a1.5,1.5,0,0,1-.048.179l-.173.533h-.154l-.164-.5a1.422,1.422,0,0,1-.059-.218h0c-.006.079-.015.151-.025.238l-.059.475h-.151l.137-.918h.177l.177.53a1.469,1.469,0,0,1,.05.188h0a1.447,1.447,0,0,1,.05-.182l.181-.536h.178l.14.918Z" transform="translate(-280.435 -29.82)"/></g></g></g></svg>