<svg xmlns="http://www.w3.org/2000/svg" xmlns:xlink="http://www.w3.org/1999/xlink" width="177.768" height="68.485" viewBox="0 0 177.768 68.485"><defs><style>.a{fill:url(#a);}.b{fill:#820000;}.c{fill:red;}.d{fill:#1a1a1a;}</style><radialGradient id="a" cx="38.272" cy="61.054" r="51.493" gradientTransform="matrix(-1, 0, 0, 1, 54.982, 0)" gradientUnits="userSpaceOnUse"><stop offset="0.002" stop-color="#f8708e"/><stop offset="0.02" stop-color="#f86d8a"/><stop offset="0.357" stop-color="#fb3e4f"/><stop offset="0.644" stop-color="#fd1c24"/><stop offset="0.868" stop-color="#fe0709"/><stop offset="1" stop-color="red"/></radialGradient></defs><g transform="translate(-68 700)"><g transform="translate(68 -700)"><path class="a" d="M10.781,46.371A34.241,34.241,0,1,0,45.022,12.129,34.241,34.241,0,0,0,10.781,46.371Z" transform="translate(-10.779 -12.128)"/><g transform="translate(0 0)"><path class="b" d="M77.411,57.508A29.46,29.46,0,1,0,56.157,78.76,34.211,34.211,0,1,1,77.411,57.508Z" transform="translate(-10.777 -12.127)"/></g><path class="c" d="M23.469,29.513a16.4,16.4,0,1,0,8.057-7.173,19.921,19.921,0,1,1-8.057,7.173Z" transform="translate(-15.578 -16.253)"/><path class="c" d="M16.337,32.312A25.159,25.159,0,1,0,36.21,16.025,29.286,29.286,0,1,1,16.337,32.312Z" transform="translate(-12.23 -13.696)"/><path class="d" d="M187.465,52.2c-1.122.118-4.019.03-5.762.03-4.136,0-6.293-1.567-6.293-5.495V35.362c0-3.929,2.157-5.495,6.293-5.495,1.744,0,4.521-.138,5.762-.018a.417.417,0,0,1,.3.414v1.671a.319.319,0,0,1-.324.356h-5.7c-3.132,0-3.634.827-3.634,3.072v4.39h9.071a.592.592,0,0,1,.591.59v1.123a.592.592,0,0,1-.591.591H178.1V46.74c0,2.245.5,3.072,3.634,3.072h5.7a.319.319,0,0,1,.324.356V51.79A.419.419,0,0,1,187.465,52.2Z" transform="translate(-93.607 -21.019)"/><path class="d" d="M211.832,52.247c-2.246,0-4.523.116-5.379-.03a.675.675,0,0,1-.621-.738V30.632a.694.694,0,0,1,.621-.739c.856-.148,3.133-.014,5.379-.014,5.466,0,8.952,2.805,8.952,9.189v3.988C220.784,49.381,217.3,52.247,211.832,52.247Zm6.263-13.178c0-5.349-2.717-6.884-6.263-6.884-1.39,0-2.306.03-3.28.088V49.883c.945.058,1.891.058,3.28.058,3.546,0,6.263-1.565,6.263-6.885Z" transform="translate(-108.914 -21.031)"/><path class="d" d="M256.227,52.314h-1.892c-.354,0-.457-.062-.768-.384l-9.5-9.438h0v9.23a.563.563,0,0,1-.532.592h-1.6c-.3,0-.533-.266-.533-.874V30.294c0-.133.177-.31.709-.369,1.272-.148,3.487-.033,5.2-.033,4.669,0,8.273,1.426,8.273,6.211v.208a5.661,5.661,0,0,1-4.639,5.827,18.135,18.135,0,0,1-3.7.374l9.274,9.152a.482.482,0,0,1,.088.266A.372.372,0,0,1,256.227,52.314Zm-3.3-16.212c0-2.954-1.92-3.788-5.614-3.788-.916,0-2.542,0-3.25.088v7.813c1.3.03,2.571.061,3.25.061,3.635,0,5.614-.776,5.614-3.967Z" transform="translate(-126.812 -21.043)"/><path class="d" d="M191.75,110.525h-.3a.531.531,0,0,1-.5-.562V89.869a.186.186,0,0,0-.207-.206c-.148,0-.207.059-.3.266l-5.112,10.785a1.5,1.5,0,0,1-1.507,1.063c-.65,0-1.093-.207-1.507-1.063l-5.111-10.785c-.088-.207-.149-.266-.3-.266a.187.187,0,0,0-.207.206v20.093a.531.531,0,0,1-.5.562h-.3a.531.531,0,0,1-.5-.562V89.869a1.339,1.339,0,0,1,1.506-1.448,1.44,1.44,0,0,1,1.359.916l5.17,10.845c.119.266.208.385.385.385s.266-.119.384-.385l5.171-10.845a1.439,1.439,0,0,1,1.359-.916,1.339,1.339,0,0,1,1.507,1.448v20.093A.532.532,0,0,1,191.75,110.525Z" transform="translate(-93.608 -50.512)"/><path class="d" d="M227.762,110.674h-7.624c-2.245,0-3.575-.828-3.575-3.31V92.028c0-2.483,1.33-3.31,3.575-3.31h7.624a.515.515,0,0,1,.561.5v.236c0,.3-.237.473-.561.473h-7.624c-1.419,0-2.275.266-2.275,2.1v6.5h9.9c.324,0,.561.178.561.473v.3a.514.514,0,0,1-.561.5h-9.9v7.565c0,1.833.856,2.1,2.275,2.1h7.624c.324,0,.561.178.561.474v.236A.515.515,0,0,1,227.762,110.674Z" transform="translate(-114.313 -50.662)"/><path class="d" d="M251.2,110.692a42.174,42.174,0,0,1-4.846-.094.628.628,0,0,1-.5-.564V89.07a.627.627,0,0,1,.5-.562,42.064,42.064,0,0,1,4.846-.1c5.024,0,8.628,2.393,8.628,9.308v3.664C259.827,108.18,256.222,110.692,251.2,110.692Zm7.329-12.972c0-6.294-3.191-8.154-7.329-8.154-1.714,0-2.748-.055-4.048.034v19.963c1.3.088,2.334-.024,4.048-.024,4.138,0,7.329-1.919,7.329-8.155Z" transform="translate(-129.048 -50.504)"/><path class="d" d="M291.329,110.674h-7.623c-2.247,0-3.577-.828-3.577-3.31V92.028c0-2.483,1.33-3.31,3.577-3.31h7.623a.514.514,0,0,1,.56.5v.236c0,.3-.236.473-.56.473h-7.623c-1.419,0-2.276.266-2.276,2.1v6.5h9.9c.325,0,.56.178.56.473v.3a.513.513,0,0,1-.56.5h-9.9v7.565c0,1.833.857,2.1,2.276,2.1h7.623c.325,0,.56.178.56.474v.236A.514.514,0,0,1,291.329,110.674Z" transform="translate(-146.295 -50.662)"/><path class="d" d="M313.819,110.7a40.728,40.728,0,0,1-4.58-.325c-.266-.029-.532-.178-.532-.474v-.385c0-.294.266-.382.562-.382h.117c1.536.116,2.807.324,4.432.324,4.462,0,5.5-1.98,5.5-4.4,0-2.186-1.271-2.954-4.55-4.993L312.9,98.911c-2.69-1.655-4.64-3.074-4.64-5.7,0-3.872,3.457-4.788,6.915-4.788,1.566,0,3.133.178,4.4.3.3.029.5.177.5.444v.384c0,.3-.237.412-.562.412-.65,0-2.866-.294-4.372-.294-3.9,0-5.556,1.123-5.556,3.575,0,1.831,1.359,2.926,3.989,4.521l1.891,1.152c3.28,1.98,5.2,3.426,5.2,6.146C320.674,107.747,319.522,110.7,313.819,110.7Z" transform="translate(-160.45 -50.512)"/><path class="d" d="M345.665,110.7c-4.4,0-7.565-2.718-7.565-9.307V97.729c0-6.589,3.162-9.308,7.565-9.308s7.564,2.719,7.564,9.308v3.664C353.229,107.983,350.067,110.7,345.665,110.7Zm6.263-12.972c0-6.028-2.688-8.066-6.263-8.066S339.4,91.7,339.4,97.729v3.664c0,6.028,2.689,8.066,6.265,8.066s6.263-2.039,6.263-8.066Z" transform="translate(-175.461 -50.512)"/><g transform="translate(132.026 8.791)"><path class="d" d="M277.77,30.22V32.76H277.3V30.22h-.805v-.4h2.09v.4Z" transform="translate(-276.49 -29.82)"/><path class="d" d="M284.16,32.76l-.23-1.564c-.049-.314-.071-.527-.092-.718h-.009a4.8,4.8,0,0,1-.153.574l-.553,1.707h-.492l-.526-1.585a4.549,4.549,0,0,1-.187-.7h-.008c-.018.252-.049.483-.079.762l-.187,1.52h-.483l.439-2.94h.566l.567,1.7a4.686,4.686,0,0,1,.16.6h.009a4.636,4.636,0,0,1,.161-.583l.579-1.716h.57l.449,2.94Z" transform="translate(-278.84 -29.82)"/></g></g></g></svg>