<svg xmlns="http://www.w3.org/2000/svg" xmlns:xlink="http://www.w3.org/1999/xlink" width="498.352" height="491.546" viewBox="0 0 498.352 491.546"><defs><style>.a,.g{fill:none;}.b,.i{fill:#fff;}.b,.c,.f,.h{opacity:0.5;}.c{clip-path:url(#c);}.d{fill:#fafafa;}.e,.j{fill:#4d4f5c;}.e{font-size:13px;font-family:SourceSansPro-Bold, Source Sans Pro;font-weight:700;}.f{fill:#43425d;font-size:11px;}.f,.j{font-family:SourceSansPro-Regular, Source Sans Pro;}.g{stroke:#f1f1f3;}.j{font-size:17px;}.k{filter:url(#a);}</style><filter id="a" x="0" y="47.42" width="498.352" height="444.127" filterUnits="userSpaceOnUse"><feOffset dy="2" input="SourceAlpha"/><feGaussianBlur stdDeviation="5" result="b"/><feFlood flood-opacity="0.153"/><feComposite operator="in" in2="b"/><feComposite in="SourceGraphic"/></filter><clipPath id="c"><rect class="a" width="460" height="365.735"/></clipPath></defs><g transform="translate(-259.545 -2801.01)"><g class="k" transform="matrix(1, 0, 0, 1, 259.55, 2801.01)"><path class="b" d="M235.908,379.58H0V362.152l-8.455-7.2L0,347.743V-34.546H459.9V379.58Z" transform="translate(23.45 94.97)"/></g><g class="c" transform="translate(283 2861.087)"><g transform="translate(-283 -2801)"><rect class="d" width="460" height="60" transform="translate(283 2801)"/><text class="e" transform="translate(330 2826)"><tspan x="0" y="0">Torque</tspan></text><text class="f" transform="translate(330 2845)"><tspan x="0" y="0">4.8V: 169.5 oz-in (12.2 kg-cm)</tspan></text><path class="g" d="M1837,5055.342h460.1" transform="translate(-1554 -2194)"/></g><g transform="translate(-283 -2740)"><rect class="d" width="460" height="60" transform="translate(283 2801)"/><text class="e" transform="translate(330 2826)"><tspan x="0" y="0">Weight</tspan></text><text class="f" transform="translate(330 2845)"><tspan x="0" y="0">2.19 oz (62.0 g)</tspan><tspan x="0" y="13"></tspan><tspan x="0" y="26"></tspan></text><path class="g" d="M1837,5055.342h460.1" transform="translate(-1554 -2194)"/></g><g transform="translate(-283 -2679)"><rect class="d" width="460" height="60" transform="translate(283 2801)"/><text class="e" transform="translate(330 2826)"><tspan x="0" y="0">Speed</tspan></text><text class="f" transform="translate(330 2845)"><tspan x="0" y="0">@ 4.8V: 0.20 sec/60°</tspan><tspan x="0" y="13"></tspan><tspan x="0" y="26"></tspan></text><path class="g" d="M1837,5055.342h460.1" transform="translate(-1554 -2194)"/></g><g transform="translate(-283 -2618)"><rect class="d" width="460" height="60" transform="translate(283 2801)"/><text class="e" transform="translate(330 2826)"><tspan x="0" y="0">Rotation Range</tspan></text><text class="f" transform="translate(330 2845)"><tspan x="0" y="0">180°</tspan></text><path class="g" d="M1837,5055.342h460.1" transform="translate(-1554 -2194)"/></g><g transform="translate(-283 -2557)"><rect class="d" width="460" height="60" transform="translate(283 2801)"/><text class="e" transform="translate(330 2826)"><tspan x="0" y="0">Control Signal</tspan></text><text class="f" transform="translate(330 2845)"><tspan x="0" y="0">PWM Analog</tspan></text><path class="g" d="M1837,5055.342h460.1" transform="translate(-1554 -2194)"/></g><g transform="translate(-283 -2496)"><rect class="d" width="460" height="60" transform="translate(283 2801)"/><text class="e" transform="translate(330 2826)"><tspan x="0" y="0">Gear Material</tspan></text><text class="f" transform="translate(330 2845)"><tspan x="0" y="0">Metal</tspan></text><path class="g" d="M1837,5055.342h460.1" transform="translate(-1554 -2194)"/></g></g><g class="h" transform="translate(283 2801.01)"><rect class="i" width="459.897" height="60.077" transform="translate(0)"/><text class="j" transform="translate(227.96 35.023)"><tspan x="-108.12" y="0">Specifications SpringRC SR431</tspan></text><path class="g" d="M1837,5055.342h460" transform="translate(-1837 -4994.922)"/></g></g></svg>